<?xml version="1.0" ?><svg xmlns="http://www.w3.org/2000/svg" width="143.63512mm" height="351.46979mm" viewBox="0 0 143.63512 351.46979">
    <path d="m -3568.4821,2480.1494 c -10.0548,0.01 -17.4031,8.852 -18.508,10.7462 -4.8026,4.7941 0.1376,19.9961 2.6769,29.038 2.5393,9.0416 7.7559,13.0903 15.2357,14.7794 7.4798,1.6891 15.843,-6.5078 16.9747,-12.8173 1.1316,-6.3092 3.5883,-27.1497 1.325,-31.1738 -2.2633,-4.024 -5.382,-9.5632 -16.2016,-10.5073 -0.5072,-0.044 -1.0082,-0.065 -1.5027,-0.065 z m 11.2179,61.9959 -21.9429,0.323 -1.9043,3.9744 c 0,0 -25.4761,4.5704 -28.0153,7.0792 -5.3363,5.2479 -3.1538,7.1831 -1.6681,9.4252 0,0 -2.9809,2.4593 -4.8302,4.6204 -1.8493,2.1609 -9.5777,15.1519 -10.3229,17.0894 -0.7452,1.9376 -4.8023,11.2528 -5.4095,12.8427 -0.6072,1.5896 1.9043,17.4625 1.9043,17.4625 l 4.5268,22.4797 c 0,0 7.5901,-2.8564 8.0869,-6.1603 0.4968,-3.3036 0.7178,-38.0298 1.6562,-39.1227 0.9385,-1.093 14.2973,-15.0782 14.2973,-15.0782 0,0 1.4031,16.6319 1.8723,19.4139 0.4692,2.782 5.2715,1.3415 5.2715,1.3415 0,0 -0.4137,9.9362 -0.5793,11.1781 -0.1656,1.2423 -0.9385,5.1173 -2.4014,6.9805 -1.4628,1.8629 -2.1805,12.6181 -2.1255,20.7408 0.055,8.1227 0.9111,13.9294 0.9111,13.9294 0,0 -8.0044,-2.6084 -7.9494,-1.2919 0.055,1.3166 14.3252,61.3549 14.3252,61.3549 0,0 -3.9749,7.2038 -4.9961,10.9296 -1.0213,3.7261 3.7264,7.4517 3.7264,7.4517 0,0 2.2908,50.8228 2.898,55.8901 0.6072,5.0673 4.1677,8.0729 4.1677,8.0729 0,0 -16.7816,18.1334 -18.7688,21.437 -1.9873,3.3038 11.8685,4.3718 16.4227,2.7073 4.5541,-1.6642 13.4143,-15.9471 13.8007,-18.7787 0.3864,-2.8318 2.5392,-55.3932 2.0976,-60.0382 -0.4417,-4.645 -0.1658,-6.3592 1.6283,-7.8993 1.7941,-1.5402 0.911,-11.0038 0.3866,-14.6802 -0.5244,-3.6764 -4.2783,-4.1729 -4.2783,-4.1729 0,0 -1.5455,-38.3035 -1.2971,-41.9302 0.2484,-3.6266 -4.6373,-4.8934 -6.6797,-7.9489 -2.0425,-3.0554 -0.5519,-4.0241 -0.5519,-4.0241 l 19.6246,-0.5958 4.0019,53.5797 c 0,0 -1.711,3.9742 -2.1803,6.334 -0.4692,2.3599 1.9596,15.7737 1.9596,15.7737 l 5.5754,62.0003 c 0,0 8.2251,21.5363 12.3377,25.1132 4.1125,3.5771 14.7387,1.5898 13.7175,-1.1425 -1.0212,-2.7324 -14.3247,-24.7406 -14.3247,-24.7406 l 4.3594,-43.6134 c 0,0 0.4692,-18.4811 2.0149,-20.3192 1.5457,-1.8383 1.1039,-13.9104 1.4351,-17.1891 0.3313,-3.279 -2.8428,-1.9126 -2.8428,-1.9126 l -0.2651,-6.7463 0.5871,-61.9358 -7.6182,1.8382 -2.0422,-30.0814 -2.5947,-1.0682 1.2144,-16.2202 2.8706,-1.8381 4.9129,-16.1711 5.1062,-0.1488 16.478,20.6421 -3.7811,36.8376 8.3075,3.1548 c 0,0 8.2255,-24.4923 9.4123,-29.6343 1.1869,-5.1419 -2.3737,-11.1281 -2.9533,-13.6369 -0.5796,-2.5088 -14.0493,-28.3425 -14.0493,-28.3425 0,0 -3.588,-10.3336 -6.845,-13.6126 -3.2569,-3.2787 -28.5668,-6.6322 -28.5668,-6.6322 z" fill="#FFD144" paint-order="fill markers stroke" transform="translate(-210.08078,140.49763) translate(3855.9628,-2614.4194)"/>
    <path d="m -3538.8244,2824.4551 c -1.944,-0.7413 -4.8421,-2.9625 -6.4399,-4.936 -3.4783,-4.2964 -8.7214,-16.155 -9.7959,-22.1558 -1.7637,-9.851 -5.4593,-50.4853 -5.2048,-57.2297 0.1132,-2.9988 -0.3675,-6.9843 -1.0683,-8.8571 -1.4646,-3.9142 -1.2657,-17.5257 0.2774,-18.9562 0.686,-0.6365 0.6293,-2.6026 -0.1814,-6.2785 -1.0489,-4.7559 -3.0038,-31.5084 -3.0254,-41.4048 l -0.01,-3.7402 -7.6686,-0.2551 c -4.2181,-0.1322 -7.9256,-0.018 -8.2399,0.2741 -0.3139,0.2914 0.831,1.4294 2.5444,2.5297 3.5855,2.3022 3.468,1.6866 4.884,25.5715 0.5018,8.4619 0.6941,16.7918 0.4273,18.5109 -0.4133,2.6618 -0.1591,3.2208 1.712,3.7664 2.7679,0.8066 3.4348,2.8412 3.9343,12.0032 0.3614,6.6348 0.2092,7.5305 -1.5832,9.2995 -1.6969,1.6749 -1.8789,2.5005 -1.2606,5.7157 0.8813,4.5796 -0.4684,41.299 -1.9904,54.1456 -1.436,12.1222 -4.3196,18.9757 -10.3594,24.6202 -3.761,3.5151 -5.1602,4.2466 -7.9227,4.1423 -8.3397,-0.3148 -16.3892,-4.0509 -16.2574,-7.5457 0.026,-0.6857 2.7752,-3.8534 6.1096,-7.0389 13.4573,-12.8576 12.8037,-12.0004 10.7999,-14.1613 -1.3115,-1.4145 -1.8714,-3.821 -2.1618,-9.2913 -0.2157,-4.0603 -0.9752,-13.0844 -1.6874,-20.0536 -1.3738,-13.4409 -1.261,-29.9676 0.2039,-29.9124 0.8711,0.033 1.2581,2.8614 1.8649,13.628 0.1744,3.0921 1.1168,11.9636 2.0943,19.7141 0.9778,7.7507 1.7069,16.0227 1.6208,18.3824 -0.2266,6.0025 1.5816,7.6244 7.3515,6.6195 4.7884,-0.9719 4.2715,0.633 4.5111,-3.801 l 1.2567,-23.2658 c 0.7821,-14.4707 1.2622,-27.0526 1.0553,-27.9602 -0.2823,-1.3123 -1.3728,-1.6882 -5.335,-1.8377 -8.0603,-0.3042 -14.3856,-2.3124 -17.3489,-5.5082 -2.5898,-2.7929 -2.6229,-2.9805 -1.7654,-9.9717 0.4805,-3.9187 1.4499,-7.6592 2.1541,-8.3122 1.0611,-0.9838 0.2098,-5.56 -5.0191,-26.7264 -6.3489,-25.7415 -7.7457,-33.8346 -6.4587,-37.4157 0.647,-1.8005 0.8535,-1.8366 2.6583,-0.4682 1.0762,0.8158 2.2027,1.4928 2.5035,1.5041 0.3006,0.012 0.5075,-3.8503 0.459,-8.5815 -0.1097,-10.9061 2.18,-23.6268 4.6678,-25.9337 1.3763,-1.2763 1.8714,-3.0537 2.0314,-7.2898 0.1162,-3.0813 -0.1055,-5.5642 -0.4931,-5.518 -0.3874,0.047 -1.6691,0 -2.8486,-0.1074 -2.913,-0.2611 -4.6646,-5.2054 -4.3929,-12.4017 0.1168,-3.0976 -0.103,-5.6282 -0.4891,-5.6239 -0.3861,0.011 -2.9051,2.6518 -5.5981,5.8841 l -3.5208,4.225 c -1.3267,1.2024 -1.382,1.9682 -1.4131,3.6475 l -0.2007,10.833 c -0.1311,7.056 -0.081,14.7287 0.11,17.0499 0.2068,2.5069 -0.34,6.473 -1.348,9.7668 -1.573,5.143 -1.5955,6.0123 -0.3084,11.9675 1.1615,5.3759 1.1745,6.5421 0.08,7.1626 -2.2488,1.2752 -3.7679,-0.1745 -4.6769,-4.4604 -1.5569,-7.341 -3.3149,-4.9221 -4.5364,6.2412 -0.492,4.4971 -1.2964,7.6025 -2.1369,8.2479 -2.4259,1.8636 -3.2473,-0.6225 -2.6417,-7.9953 0.6689,-8.143 -0.1935,-8.561 -1.9684,-0.9546 -0.6821,2.9223 -1.6642,6.2356 -2.1826,7.363 -1.3844,3.0111 -3.6214,1.532 -3.8482,-2.5445 l -0.1911,-3.4332 -1.2341,2.5926 c -1.3225,2.7788 -4.6089,3.0236 -4.3054,0.321 0.1116,-1.0013 -0.3996,-1.3489 -1.5956,-1.0841 -2.5463,0.5644 -2.1697,-2.0535 1.2382,-8.6057 3.0135,-5.7937 7.6465,-10.257 12.7048,-12.2392 2.2786,-0.8928 2.9299,-1.6467 2.6504,-3.0677 -2.0778,-10.5634 -4.3043,-24.6536 -4.6484,-29.4145 -0.334,-4.6239 -0.087,-6.3555 1.1559,-8.1048 0.8691,-1.2234 1.6292,-3.5102 1.6885,-5.0818 0.164,-4.3459 12.5132,-25.2513 16.2909,-27.5778 0.5055,-0.3115 0.6895,-1.6535 0.4089,-2.9825 -0.6254,-2.9602 3.7952,-8.0607 9.1284,-10.5327 4.4009,-2.0398 13.9885,-4.1638 18.0958,-4.0087 2.3661,0.089 3.3929,-0.393 4.146,-1.9471 1.3493,-2.785 7.2911,-3.9965 18.0706,-3.684 9.2776,0.2679 9.9201,0.6182 9.8441,5.3417 l -0.044,2.7922 7.4587,0.5665 c 8.9443,0.6791 18.8364,3.873 21.4037,6.9105 1.6986,2.0095 4.0141,8.1703 3.4881,9.2795 -0.1209,0.2525 1.8061,3.3176 4.2802,6.8106 3.8491,5.4349 11.6952,21.3883 11.6114,23.6092 -0.016,0.3989 0.7309,3.3677 1.6578,6.5975 2.6564,6.9882 0.9149,8.5846 -1.1269,15.773 -1.5468,5.4454 -3.4129,11.5022 -4.1465,13.46 -1.2758,3.4037 -1.1849,3.8757 2.0872,10.8297 3.1261,6.6439 3.3703,7.7718 2.8303,13.0834 -0.6517,6.4104 -3.1974,10.6662 -6.6056,11.043 -1.4547,0.1625 -2.1173,-0.4056 -2.4793,-2.1203 l -0.4946,-2.3397 -2.6816,2.7828 c -4.5536,4.7249 -7.7683,1.3527 -3.7353,-3.918 1.0363,-1.3545 2.2162,-3.5019 2.6217,-4.7721 0.5753,-1.8011 -0.3524,-1.2189 -4.2143,2.646 -4.6658,4.6687 -5.0265,4.8528 -6.238,3.1793 -1.1657,-1.611 -0.8825,-2.2348 3.044,-6.7004 3.4982,-3.9784 4.3563,-5.6341 4.4691,-8.6221 0.1956,-5.1845 -2.0922,-4.9302 -4.9524,0.5507 -2.3599,4.5218 -4.1937,5.3789 -5.7521,2.6885 -1.1605,-2.0032 1.6824,-8.9984 4.8729,-11.9906 2.0538,-1.9263 2.3378,-3.2206 3.4228,-15.6132 0.6505,-7.432 1.5776,-15.2631 2.0596,-17.4018 1.0451,-4.6367 -0.4646,-7.5423 -9.3086,-17.9171 -6.2636,-7.3476 -7.7165,-7.4589 -9.1228,-0.6988 -0.4271,2.0535 -1.4036,4.8324 -2.1702,6.1755 -0.7669,1.3432 -1.4157,2.9527 -1.4424,3.5765 -0.024,0.6237 -0.9059,1.5517 -1.9539,2.0626 -1.6219,0.7909 -1.9409,1.8847 -2.1477,7.3635 -0.2021,5.353 0.026,6.4968 1.3578,6.8058 1.1542,0.2687 1.6173,1.4129 1.6601,4.105 0.05,3.1587 0.264,22.8414 0.2716,25.0205 0.011,0.3903 0.8363,0.2304 1.8551,-0.3526 2.3257,-1.3335 6.068,0.5857 7.0213,3.6005 0.3499,1.1067 0.2303,16.0882 -0.2658,33.2927 -0.7019,24.3536 -0.6417,31.3678 0.2747,31.6743 2.7909,0.9327 3.3959,3.54 3.0359,13.0789 -0.2688,7.1213 -0.6914,9.7658 -1.611,10.0796 -0.9711,0.3312 -1.3957,4.3903 -1.9202,18.3644 -0.6595,17.4736 -3.1704,39.8208 -4.7866,42.5413 -0.8565,1.4415 1.3955,5.2297 10.7457,18.0776 2.9458,4.0476 5.1278,8.0305 5.0808,9.275 -0.1508,3.9937 -8.6883,6.2657 -14.7956,3.9371 z m 9.11,-5.2066 c 0.1977,-0.1834 -1.4091,-2.8829 -3.5714,-5.9975 -2.1626,-3.115 -5.2493,-8.4573 -6.8596,-11.8721 l -2.9273,-6.2087 -4.4831,-0.2702 c -3.9301,-0.1669 -4.9191,-1.2295 -3.1578,2.6448 l 2.6677,5.8679 c 5.1076,11.2345 6.9105,13.944 10.4173,15.6573 2.4358,1.1899 6.7194,1.2869 7.9142,0.1794 z m -57.9586,-3.845 c 1.1665,-0.5918 3.237,-2.4747 4.6007,-4.1847 2.5589,-3.2073 6.9737,-12.7756 6.2536,-13.5524 -0.2241,-0.2417 -2.1375,-0.7376 -4.2531,-1.103 -3.2864,-0.5679 -4.0781,-0.3579 -5.4371,1.4327 -0.8743,1.1537 -4.4131,5.098 -7.8633,8.765 -3.4501,3.6673 -6.0452,6.9133 -5.7666,7.2138 0.6412,0.6915 6.0218,2.1962 8.48,2.3717 1.0256,0.073 2.8192,-0.3513 3.9858,-0.9431 z m 43.0731,-25.0559 c 1.3589,-0.7921 4.1681,-20.4396 6.1231,-42.8292 l 1.1716,-13.4177 -2.2671,0.4567 c -1.2468,0.2511 -5.7514,0.6189 -10.0104,0.8173 l -7.7435,0.3605 0.3466,4.7999 c 0.8729,12.0899 1.827,21.8021 3.419,34.8034 0.9467,7.7314 1.7088,14.3869 1.6936,14.79 -0.036,0.9631 5.6944,1.1359 7.2671,0.2191 z m -7.7607,-59.6011 c -0.025,-0.374 0.092,-4.2507 0.2566,-8.6158 0.2824,-7.4839 0.1857,-7.9405 -1.6963,-8.0115 -1.936,-0.073 -1.9852,0.1689 -1.6427,8.0791 0.194,4.485 0.5589,8.518 0.8109,8.9625 0.528,0.9308 2.3396,0.6008 2.2731,-0.4143 z m 6.5835,-8.1434 c 0.055,-8.3268 -0.025,-8.6613 -2.1711,-9.0476 -2.1745,-0.3916 -2.2187,-0.2799 -1.8184,4.6064 0.2258,2.754 0.3468,6.7932 0.269,8.9759 -0.1271,3.3673 0.1464,3.9793 1.7606,4.0401 1.7962,0.068 1.9056,-0.4101 1.9599,-8.5748 z m -37.1551,-1.2246 c 0.2266,-6.0039 0.097,-6.4861 -1.7577,-6.5561 -1.9012,-0.072 -1.9852,0.2333 -1.6626,6.0528 0.1869,3.3706 0.5777,6.5477 0.8682,7.0605 1.254,2.2111 2.325,-0.5409 2.5521,-6.5572 z m 4.6694,0.1491 c 0.2121,-5.6227 -0.017,-7.459 -0.8968,-7.202 -0.6502,0.19 -1.1734,1.0466 -1.1628,1.9038 0.01,0.8576 -0.01,4.0828 -0.037,7.1672 -0.084,8.5431 1.7657,6.8932 2.0963,-1.869 z m 6.6477,0.779 c -0.103,-7.5671 -0.233,-7.9388 -2.798,-8.0357 -1.5425,-0.058 -1.8219,0.3458 -1.4176,2.0502 0.2768,1.1675 0.6802,4.5679 0.8963,7.5562 0.3106,4.2958 0.7086,5.3834 1.9006,5.1965 1.251,-0.1967 1.4924,-1.3489 1.4187,-6.7672 z m 32.6934,7.6962 c 1.1886,-0.4053 1.5551,-2.0122 1.7726,-7.7745 l 0.163,-4.3191 c 0.1925,-3.6887 0.6062,-2.8496 -2.9062,-3.5209 -1.6593,-0.317 -3.1178,-0.4975 -3.2414,-0.4004 -0.1228,0.097 0.1347,1.6319 0.5726,3.411 0.4383,1.7789 0.7138,5.4429 0.6119,8.1423 -0.1845,4.8899 0.1833,5.4318 3.0275,4.4616 z m -51.5158,-12.7144 c -1.683,-1.139 -2.5109,7.1101 -0.9226,9.1914 0.9956,1.3051 1.2343,0.8061 1.6399,-3.4282 0.3194,-3.3371 0.085,-5.2194 -0.7173,-5.7632 z m 32.6101,-3.1153 c -1.165,-1.2563 -1.5775,0.7887 -1.017,5.0408 l 0.5999,4.5498 0.4596,-4.5243 c 0.2529,-2.4885 0.233,-4.7684 -0.042,-5.0662 z m -19.2097,-4.2185 c 0.4947,-0.4587 -0.2306,-37.3577 -0.7909,-40.2365 -0.234,-1.2018 -2.8047,-3.2678 -7.0249,-5.646 -3.6606,-2.0625 -9.196,-5.7909 -12.3007,-8.2852 -3.105,-2.4947 -5.9141,-4.2861 -6.2428,-3.9812 -0.3288,0.3046 2.0242,10.2294 5.2284,22.055 3.2042,11.8256 6.4043,23.9573 7.1116,26.9593 2.5509,10.829 2.2265,10.438 8.2674,9.958 2.9258,-0.2322 5.5141,-0.6028 5.7519,-0.8234 z m 28.6559,0.553 5.806,-0.7869 1.1948,-15.4608 c 0.6573,-8.5036 1.4854,-23.1477 1.84,-32.5426 l 0.5193,-13.7565 c 0.1895,-4.379 0.6787,-3.8071 -2.4623,-1.0713 l -4.9051,4.2724 c -4.1209,3.5897 -9.1797,7.9312 -11.2421,9.6477 -4.5517,2.8631 -3.5383,4.6694 -2.8591,9.6371 0.4903,3.5834 1.2536,12.2701 1.6966,19.3034 0.8878,14.0971 2.1277,21.4505 3.6261,21.507 0.5389,0.021 3.5924,-0.3171 6.7858,-0.7498 z m -18.7853,-54.5292 c 2.978,-0.3773 3.8136,-1.0389 5.6311,-4.4582 1.1739,-2.2084 4.497,-6.3322 7.3848,-9.1637 5.075,-4.9768 5.2549,-5.3207 5.3956,-10.309 l 0.1448,-5.1601 -3.1253,3.5928 c -6.0022,6.9008 -12.837,13.2939 -15.6007,14.5935 -6.6609,3.1318 -14.2324,-1.1218 -22.2922,-12.5232 l -5.1071,-7.2248 -0.791,4.5556 c -0.4353,2.5054 -0.9035,6.55 -1.0404,8.9874 -0.2314,4.0904 -0.075,4.4385 2.0133,4.5173 2.3484,0.088 8.0286,4.325 12.9588,9.6645 3.0159,3.2664 6.3775,3.9489 14.4273,2.9279 z m 20.7101,-12.5185 c -1.1174,-0.4371 -6.4026,4.0955 -10.8217,9.2804 -2.3319,2.7359 -1.2678,2.0891 4.3456,-2.641 4.0887,-3.4456 7.0029,-6.4332 6.4761,-6.6394 z m -18.7267,-3.8741 c 9.6373,-9.2687 19.5746,-23.3375 16.564,-23.4512 -1.128,-0.043 -7.5069,6.3695 -10.1361,10.1886 -4.7081,6.8392 -11.0333,12.3874 -13.9949,12.2756 -4.6904,-0.177 -17.5879,-11.3709 -19.4288,-16.862 -0.9963,-2.9716 -2.754,-3.5406 -2.8528,-0.9239 -0.086,2.2832 11.492,17.5309 15.3452,20.2083 1.7486,1.2151 4.5417,2.1374 6.7545,2.2301 3.2268,0.1218 4.3493,-0.3961 7.7489,-3.6655 z m -4.7672,-5.0994 c 1.2137,-0.7313 3.6823,-3.0304 5.4859,-5.1092 l 3.2794,-3.7791 -5.311,2.7781 c -2.9211,1.5279 -6.4594,2.735 -7.8629,2.6819 -2.5074,-0.095 -10.6712,-4.082 -13.3338,-6.5124 -3.3304,-3.0402 -3.7408,-2.3294 -0.5,0.8667 3.9112,3.8567 12.9085,10.0932 14.8384,10.2847 0.6586,0.064 2.1903,-0.4794 3.404,-1.2107 z m -50.3564,-2.2603 c 1.6934,-0.5904 1.8871,-1.8058 2.6387,-16.5451 l 0.8124,-15.9074 -4.7905,-0.76 c -8.3117,-1.3181 -8.2043,-1.3549 -7.6611,2.6218 0.8755,6.4108 5.0786,29.865 5.4825,30.5945 0.4699,0.849 1.0769,0.8482 3.5191,0 z m 104.3689,1.9718 c 0.4977,0.019 1.6151,-1.5002 2.4831,-3.3754 2.549,-5.5067 7.8609,-22.3624 7.5964,-24.1041 -0.1804,-1.1888 -1.5592,-1.7965 -5.3473,-2.3565 -2.8074,-0.4154 -5.376,-0.5124 -5.7084,-0.2155 -0.3322,0.2964 -1.1023,7.3935 -1.7116,15.7712 -0.9749,13.4102 -0.9347,15.1726 0.3378,14.7388 0.795,-0.271 1.8523,-0.4773 2.35,-0.4585 z m -52.7126,-11.4443 4.1334,-1.8189 1.1633,-7.799 c 0.6401,-4.2893 1.0587,-7.8028 0.9302,-7.8077 -0.127,0 -1.0943,0.7895 -2.1466,1.7656 -1.6416,1.5219 -1.8221,2.3887 -1.2722,6.1035 0.7829,5.2885 0.062,8.0901 -1.9618,7.6256 -1.1367,-0.2601 -1.5213,-1.6522 -1.5802,-5.7151 -0.067,-4.626 -0.3329,-5.3795 -1.919,-5.4394 -1.6759,-0.063 -1.8399,0.4977 -1.8251,6.2422 0.016,5.7734 -0.1423,6.306 -1.8514,6.2414 -1.6973,-0.064 -1.8437,-0.6928 -1.6093,-6.9047 0.2085,-5.5243 -0.047,-7.0203 -1.3333,-7.8057 -1.47,-0.8975 -1.5666,-0.4432 -1.2679,5.9619 0.2388,5.1174 0.01,7.1136 -0.8898,7.6214 -0.8835,0.5009 -0.6208,1.0462 0.9673,2.0062 3.0998,1.8744 5.7307,1.8046 10.4624,-0.2773 z m -15.3928,-4.4251 c -0.2556,-1.1527 0.062,-5.0109 0.7047,-8.5731 1.0896,-6.0359 1.0388,-6.613 -0.7467,-8.4683 l -1.9161,-1.9912 0.2393,9.7492 c 0.1315,5.3619 0.4422,10.107 0.6905,10.5447 0.8792,1.5502 1.4861,0.8059 1.0283,-1.2613 z m 28.1862,-9.9557 c 1.101,-5.5086 1.4406,-9.1301 0.9093,-9.703 -0.466,-0.5029 -1.0461,-0.7302 -1.2886,-0.5052 -0.6518,0.6043 -2.5744,20.0063 -1.9286,19.4617 0.3028,-0.2555 1.3415,-4.4196 2.3079,-9.2535 z m -33.0631,-0.85 c 0.2263,-5.9947 0,-7.9276 -0.8793,-7.6716 -0.7851,0.2274 -1.3691,2.8977 -1.7405,7.9596 -0.4679,6.3555 -0.3222,7.6264 0.8792,7.6717 1.1833,0.045 1.4918,-1.3652 1.7406,-7.9597 z m 38.4052,-1.8596 c 0.1616,-4.2808 -0.1129,-7.3696 -0.6561,-7.3901 -0.5134,-0.02 -1.0029,1.7967 -1.0874,4.0358 -0.084,2.2393 -0.5106,6.1151 -0.9471,8.6129 -0.7275,4.1639 -0.66,4.4402 0.8098,3.3193 1.2482,-0.9522 1.6647,-2.8508 1.8808,-8.5779 z m -17.981,-2.8731 c 1.1059,-0.7138 3.1893,-3.0242 4.1146,-5.3678 2.0821,-5.2738 4.9322,-4.198 10.115,-4.4332 10.7818,-0.4897 11.4881,-2.0552 0.992,-2.1987 -6.4731,0.2418 -7.8207,0.9619 -9.7583,-4.8982 -2.3532,-7.1171 -8.2854,-10.3566 -14.6217,-7.9845 -4.2113,1.5765 -5.519,3.1852 -6.5302,8.0328 -0.7572,3.6308 -1.1266,4.056 -3.6323,4.1834 -8.0851,0.4103 -8.8898,0.7477 -9.004,3.7719 -0.097,2.5558 0.1222,2.8012 2.0185,2.258 1.1698,-0.3357 3.9584,-0.7456 6.197,-0.9111 3.578,-0.2649 4.414,0.055 6.9121,2.6552 3.137,3.2626 7.5559,6.0381 9.7608,6.1301 0.7843,0.029 2.3306,-0.5246 3.4366,-1.2385 z m -9.91,-3.7796 c -6.9676,-2.8602 -5.7282,-15.4022 1.9136,-19.3683 3.1026,-1.6099 6.8422,-0.476 10.1333,3.0734 4.7471,5.1198 2.5204,13.853 -4.1707,16.3569 -3.5253,1.3191 -4.5316,1.3111 -7.8762,-0.061 z m 7.7126,-4.9879 c 1.2651,-0.9474 2.1634,-2.6877 2.2776,-4.4123 0.2157,-3.2622 -2.2693,-7.9686 -4.2473,-8.0433 -3.9864,-0.1504 -8.8186,9.2256 -6.3866,12.3915 1.4923,1.9429 5.8045,1.976 8.3563,0.063 z m -5.289,-1.0453 c -1.636,-0.7328 -1.272,-4.6274 0.5943,-6.3579 0.8679,-0.8048 2.1798,-1.2062 2.9151,-0.8916 0.7353,0.3143 1.5125,0.5785 1.7271,0.5866 1.0537,0.039 0.028,4.7259 -1.3032,5.9614 -1.5888,1.4732 -2.0339,1.5527 -3.9333,0.7015 z m 3.5476,-4.4371 c 0.3527,-1.5116 0.1978,-1.5861 -1.1478,-0.5527 -1.8402,1.4139 -2.128,3.1363 -0.4413,2.6446 0.6499,-0.1901 1.365,-1.1307 1.5891,-2.0919 z m -37.6271,-3.3966 6.5022,-8.7912 -2.516,-2.5121 c -1.3836,-1.3814 -3.1657,-3.5884 -3.9597,-4.904 -0.7939,-1.3153 -1.6446,-2.189 -1.8901,-1.9411 -1.2574,1.2697 -9.6504,13.7189 -11.5473,17.1275 -1.2006,2.1576 -1.9452,4.3423 -1.6547,4.8548 0.5351,0.9434 6.7304,4.7711 7.9179,4.8917 0.355,0.04 3.5715,-3.8904 7.1477,-8.7256 z m 96.7717,11.604 c 1.3306,-0.5468 2.4394,-1.5332 2.4643,-2.1928 0.078,-2.0698 -5.5804,-15.0058 -8.7562,-20.0175 l -3.04,-4.7975 -4.6443,3.8963 -4.6439,3.896 7.1817,8.0693 c 3.9502,4.438 7.4334,8.9788 7.7408,10.0909 0.6529,2.3624 0.5719,2.3394 3.6976,1.0553 z m -73.8928,-10.4758 c 0.019,-0.5066 0.9677,-2.6766 2.108,-4.8221 2.5271,-4.754 8.0506,-7.5275 14.5063,-7.2839 3.5212,0.1329 4.9419,0.7331 7.521,3.1757 1.8014,1.7062 3.5957,4.6176 4.1389,6.7159 0.6853,2.6469 1.3866,3.6044 2.4561,3.3552 0.8236,-0.1917 3.9037,-0.531 6.8453,-0.7535 3.8577,-0.2914 5.4922,-0.8374 5.8647,-1.959 0.5406,-1.6263 5.6112,-22.8455 6.5213,-27.2883 0.4451,-2.1737 0.1553,-2.6544 -1.8972,-3.1471 -1.3321,-0.3198 -4.8515,-1.3001 -7.8206,-2.178 -3.0866,-0.9127 -6.7773,-1.3912 -8.6173,-1.1174 l -3.2189,0.4787 1.8747,3.3057 c 1.4516,2.5605 1.6131,3.544 0.7158,4.3622 -0.8915,0.8135 -1.658,0.4335 -3.3286,-1.6486 -1.1937,-1.4879 -2.1414,-3.4733 -2.1059,-4.4118 0.07,-1.8459 -2.3274,-2.9163 -6.969,-3.1122 -2.5403,-0.096 -3.1493,0.4126 -5.237,4.4646 -2.4233,4.7032 -4.9024,6.0208 -4.7709,2.5357 0.04,-1.0762 0.8327,-3.1371 1.76,-4.58 0.9274,-1.4426 1.4886,-2.8359 1.2472,-3.0962 -0.4518,-0.4874 -15.6768,1.1325 -19.3047,2.0542 -1.1203,0.2845 -2.3142,1.4147 -2.6532,2.5113 -0.9731,3.1474 -1.2464,15.6546 -0.4643,21.2452 0.3919,2.8004 0.8782,7.0204 1.0808,9.3781 l 0.368,4.2866 4.6724,-0.7748 c 2.5699,-0.426 4.6879,-1.1894 4.7071,-1.6962 z m 26.5941,-10.9792 c -5.9878,-2.0084 -17.7315,-2.5808 -23.0987,-1.1263 -4.3096,1.1687 -1.9462,-1.3896 2.4702,-2.6737 6.1431,-1.7862 15.8345,-1.4398 22.0872,0.7888 9.8545,3.5134 8.4827,6.344 -1.4586,3.0096 z m 33.0585,-7.1043 c 1.7657,-2.2646 1.7879,-2.5564 0.4257,-5.594 -1.3142,-2.9299 -3.5107,-5.5165 -4.7883,-5.6389 -0.2815,-0.036 -1.1517,3.398 -1.933,7.6111 -0.7813,4.2129 -1.7246,8.7005 -2.0961,9.9721 -0.641,2.195 -0.493,2.1533 2.9269,-0.8245 1.9811,-1.7252 4.4404,-4.2117 5.4648,-5.5258 z m -75.0163,-5.475 0.4593,-9.2918 -2.4937,1.1725 c -1.3717,0.6449 -3.2651,1.9626 -4.2074,2.928 -1.5611,1.5994 -1.6018,2.0538 -0.4589,5.108 0.9868,2.6374 5.3459,9.3459 6.0884,9.3699 0.082,0 0.3564,-4.1763 0.6102,-9.2867 z m 40.4754,-16.2684 c 2.4391,0.092 4.4511,-0.2612 4.4706,-0.7746 0.022,-0.5663 -4.0489,-1.0876 -10.3494,-1.3254 -9.4501,-0.3566 -10.2775,-0.2527 -9.1915,1.1618 0.934,1.2157 2.2208,1.4693 5.9144,1.1662 2.5964,-0.213 6.7166,-0.3156 9.1559,-0.228 z m -12.4229,-10.5469 c -1.5545,-0.7478 -4.2526,-2.7104 -5.9955,-4.3613 -2.1213,-2.0092 -3.4907,-2.7033 -4.142,-2.0995 -1.8272,1.6944 -3.3982,-1.758 -2.3098,-5.0757 0.8334,-2.5403 0.6766,-3.2522 -1.087,-4.9313 -2.5108,-2.3905 -4.4621,-15.5897 -2.6906,-18.2013 0.5732,-0.8457 0.8921,-2.9221 0.7087,-4.6146 -0.7674,-7.0756 4.8388,-14.3506 14.4762,-18.7857 2.5605,-1.1781 4.936,-2.5606 5.2792,-3.0716 0.9068,-1.3506 4.3399,-1.0026 5.9918,0.607 0.7834,0.7632 3.4797,2.2397 5.9923,3.281 5.7243,2.373 9.8287,7.8756 11.1083,14.8922 0.5031,2.7586 1.7217,6.9007 2.7075,9.2045 1.675,3.9136 1.6984,4.6819 0.3573,11.7009 -0.7897,4.1316 -2.1089,8.2074 -2.9321,9.057 -0.823,0.85 -1.3109,2.0936 -1.0844,2.7643 0.7042,2.0836 -1.2118,5.3653 -3.0914,5.2943 -0.9806,-0.037 -2.3861,0.6079 -3.123,1.4329 -3.7428,4.1903 -14.3262,5.7162 -20.1655,2.9069 z m 11.0149,-3.8679 c 0.9674,0.036 3.2414,-1.1398 5.0536,-2.6137 3.778,-3.0726 4.8361,-6.0563 7.0896,-19.9928 1.2537,-7.7538 1.3306,-10.132 0.4284,-13.2548 -3.5154,-12.1776 -15.0767,-16.6519 -25.9392,-10.0385 -7.8781,4.7964 -9.7306,10.3295 -6.8757,20.5362 1.1353,4.0589 2.6637,9.9137 3.3962,13.0104 1.9355,8.179 8.1363,13.8103 13.8327,12.562 1.0202,-0.142 2.0617,-0.2395 3.0144,-0.2088 z m -4.8283,-2.7499 c 0.042,-1.0942 -0.1827,-2.1046 -0.3002,-2.7759 -2.998,0.08 -4.1425,-1.6133 -2.1643,-2.6057 0.8897,-0.4463 1.2724,-0.1925 1.435,-1.0741 0.3261,-1.7676 -0.3311,-5.3159 -0.2928,-8.7242 0.082,-7.3056 -0.174,-8.8451 -1.6656,-10.0242 -2.6273,-2.076 -5.8652,-1.8306 -8.537,0.6469 -2.1319,1.9767 -2.3713,2.0231 -2.3119,0.4478 0.083,-2.2126 4.4615,-5.4668 7.2148,-5.363 1.1455,0.044 3.1607,0.9947 4.4787,2.1143 3.1417,2.7618 2.0606,2.297 5.3502,-0.2657 1.7015,-1.3252 4.1118,-2.2574 5.6835,-2.1982 2.9484,0.1114 6.3573,3.074 6.2678,5.4471 -0.046,1.2172 -0.4158,1.0631 -2.4424,-0.5598 -3.2536,-2.6055 -5.8683,-2.646 -9.0849,-0.3429 -2.1852,1.5647 -2.5598,2.5525 -2.7219,6.8469 -0.1579,4.1845 0.1134,5.1132 1.6559,5.6675 2.1652,0.7783 2.3644,3.1847 0.3212,3.8815 -1.8117,0.6177 -1.9143,2.3354 -0.1528,2.5018 3.1834,0.3006 2.3993,3.1298 -0.4889,3.526 -0.042,0.6141 0.075,2.339 -0.1674,3.0022 -1.1823,0.7786 -2.0242,1.0268 -2.077,-0.1483 z m -9.4893,-14.5592 c -1.6335,-2.2695 -1.0448,-3.2518 1.3102,-1.5784 1.2891,0.9161 3.0645,1.3382 4.4018,1.0465 2.0046,-0.4369 2.0594,-0.1968 0.8604,1.1572 -2.4655,1.359 -4.9808,1.5861 -6.5724,-0.6253 z m 14.9347,-0.2044 c -0.2554,-1.2596 3.1827,-0.7736 5.2921,-2.131 0.6351,-0.4087 1.739,-0.7945 1.3343,0.1979 -0.8803,2.1577 -2.2014,2.8069 -4.4331,2.7227 -1.2209,-0.046 -2.1161,-0.4088 -2.1933,-0.7896 z m -14.3342,-5.5259 c -0.9036,-1.5931 1.328,-3.2965 2.5675,-1.9601 1.0365,1.1181 0.2873,3.0846 -1.1549,3.0301 -0.4531,-0.017 -1.0886,-0.4985 -1.4126,-1.07 z m 15.5143,-1.2377 c 0.2661,-1.1192 0.9605,-1.4913 1.5664,-1.2649 0.4857,0.1817 0.9219,0.7496 1.057,1.6314 0.1578,1.0294 -0.3315,1.7151 -1.2844,1.5878 -0.9168,-0.1221 -1.4831,-1.3482 -1.339,-1.9543 z" transform="translate(-210.08078,140.49763) translate(3855.9628,-2614.4194)" fill="#000000"/>
</svg>